<?xml version="1.0" standalone="no"?>
<!DOCTYPE svg PUBLIC "-//W3C//DTD SVG 20010904//EN"
 "http://www.w3.org/TR/2001/REC-SVG-20010904/DTD/svg10.dtd">
<svg version="1.0" xmlns="http://www.w3.org/2000/svg"
 width="512.000000pt" height="512.000000pt" viewBox="0 0 512.000000 512.000000"
 preserveAspectRatio="xMidYMid meet">
<metadata>
Created by potrace 1.14, written by Peter Selinger 2001-2017
</metadata>
<g transform="translate(0.000000,512.000000) scale(0.100000,-0.100000)"
fill="#000000" stroke="none">
<path d="M2475 4074 c-22 -3 -89 -14 -148 -25 -633 -118 -1071 -600 -1199
-1319 -21 -118 -17 -509 6 -635 29 -159 72 -290 141 -432 200 -408 553 -675
1020 -770 135 -27 424 -24 562 5 187 40 360 113 513 215 96 64 283 251 347
347 48 71 128 220 121 224 -2 1 -20 12 -40 24 l-38 21 -14 -28 c-29 -56 -137
-192 -209 -263 -236 -233 -562 -355 -859 -320 -438 52 -769 383 -896 897 -79
319 -75 711 9 1055 69 278 199 516 366 670 144 133 282 190 478 197 99 4 136
1 210 -16 350 -84 645 -400 776 -833 l33 -110 50 6 c27 3 51 8 54 10 5 5 -103
1015 -110 1021 -1 2 -43 -6 -93 -17 -122 -27 -278 -21 -425 17 -183 46 -259
57 -440 60 -96 2 -193 1 -215 -1z"/>
</g>
</svg>
