<?xml version="1.0" standalone="no"?>
<!DOCTYPE svg PUBLIC "-//W3C//DTD SVG 20010904//EN"
 "http://www.w3.org/TR/2001/REC-SVG-20010904/DTD/svg10.dtd">
<svg version="1.0" xmlns="http://www.w3.org/2000/svg"
 width="512.000000pt" height="512.000000pt" viewBox="0 0 512.000000 512.000000"
 preserveAspectRatio="xMidYMid meet">
<metadata>
Created by potrace 1.14, written by Peter Selinger 2001-2017
</metadata>
<g transform="translate(0.000000,512.000000) scale(0.100000,-0.100000)"
fill="#000000" stroke="none">
<path d="M2649 5056 c-2 -2 -40 -6 -84 -10 -95 -7 -150 -15 -285 -42 -474 -94
-912 -352 -1230 -725 -88 -104 -91 -108 -174 -234 -222 -335 -351 -689 -420
-1155 -29 -191 -28 -678 0 -815 3 -11 7 -37 9 -59 7 -60 45 -233 72 -326 130
-453 391 -857 733 -1133 327 -264 763 -443 1178 -484 99 -10 396 -10 487 0
271 29 518 99 751 213 130 63 326 187 414 261 134 113 327 324 390 428 13 22
27 42 30 45 18 14 160 279 160 299 0 8 -101 71 -114 71 -2 0 -20 -28 -40 -62
-67 -112 -179 -251 -296 -368 -123 -124 -186 -175 -320 -262 -76 -50 -266
-148 -294 -152 -6 -1 -15 -4 -21 -8 -10 -6 -135 -46 -165 -53 -8 -2 -37 -9
-65 -15 -484 -112 -999 38 -1361 395 -234 231 -393 513 -499 885 -79 279 -109
524 -109 880 1 459 66 822 217 1215 94 242 265 508 432 668 386 373 940 437
1434 166 244 -135 469 -358 635 -631 81 -132 205 -411 231 -518 2 -8 14 -55
27 -103 l23 -88 50 6 c83 10 103 13 113 19 5 3 5 30 1 63 -5 32 -11 85 -14
118 -4 33 -8 78 -11 100 -2 22 -6 63 -9 90 -3 28 -7 66 -10 85 -7 55 -13 110
-21 185 -3 39 -8 78 -9 87 -2 9 -7 48 -10 85 -4 37 -8 79 -10 93 -2 14 -6 48
-9 75 -3 28 -8 75 -12 105 -8 70 -10 90 -18 170 -4 36 -9 76 -11 90 -2 14 -7
52 -10 85 -13 150 -17 166 -34 161 -42 -12 -223 -46 -281 -52 -163 -18 -242
-10 -520 56 -192 46 -323 72 -430 85 -54 7 -485 17 -491 11z"/>
</g>
</svg>
