<?xml version="1.0" standalone="no"?>
<!DOCTYPE svg PUBLIC "-//W3C//DTD SVG 20010904//EN"
 "http://www.w3.org/TR/2001/REC-SVG-20010904/DTD/svg10.dtd">
<svg version="1.0" xmlns="http://www.w3.org/2000/svg"
 width="512.000000pt" height="512.000000pt" viewBox="0 0 512.000000 512.000000"
 preserveAspectRatio="xMidYMid meet">
<metadata>
Created by potrace 1.14, written by Peter Selinger 2001-2017
</metadata>
<g transform="translate(0.000000,512.000000) scale(0.100000,-0.100000)"
fill="#000000" stroke="none">
<path d="M2408 4065 c-166 -23 -320 -71 -471 -147 -452 -227 -749 -689 -818
-1272 -19 -158 -6 -453 25 -602 129 -612 549 -1032 1151 -1151 137 -27 425
-24 562 5 352 76 634 255 840 532 45 61 143 228 143 245 0 5 -18 20 -39 32
l-38 22 -54 -82 c-66 -102 -228 -270 -324 -336 -104 -72 -243 -137 -360 -167
-85 -22 -121 -26 -245 -26 -173 -1 -253 17 -399 88 -350 168 -572 521 -636
1010 -20 151 -20 458 0 609 73 553 334 962 692 1083 71 24 92 26 228 26 143 0
154 -1 245 -32 324 -112 585 -404 701 -787 48 -155 40 -144 95 -134 26 5 50
11 52 14 6 5 -103 1013 -109 1019 -2 2 -44 -5 -94 -15 -141 -29 -244 -25 -420
17 -82 19 -197 41 -255 49 -128 18 -341 18 -472 0z"/>
</g>
</svg>
